<?xml version="1.0" encoding="UTF-8" standalone="no"?>
<!-- Generator: Adobe Illustrator 13.0.2, SVG Export Plug-In . SVG Version: 6.00 Build 14948)  -->

<svg
   xmlns:dc="http://purl.org/dc/elements/1.1/"
   xmlns:cc="http://creativecommons.org/ns#"
   xmlns:rdf="http://www.w3.org/1999/02/22-rdf-syntax-ns#"
   xmlns:svg="http://www.w3.org/2000/svg"
   xmlns="http://www.w3.org/2000/svg"
   xmlns:sodipodi="http://sodipodi.sourceforge.net/DTD/sodipodi-0.dtd"
   xmlns:inkscape="http://www.inkscape.org/namespaces/inkscape"
   id="Layer_1"
   enable-background="new 0 0 367.291 323.996"
   sodipodi:docname="sea_lion_title.svg"
   xml:space="preserve"
   viewBox="0 0 1080 323.996"
   version="1.0"
   y="0px"
   x="0px"
   inkscape:version="0.91 r13725"
   width="100%"
   height="100%"><defs
     id="defs3227" /><sodipodi:namedview
     id="namedview124"
     bordercolor="#666666"
     inkscape:pageshadow="2"
     guidetolerance="10"
     pagecolor="#ffffff"
     gridtolerance="10"
     inkscape:window-maximized="0"
     inkscape:zoom="1.4568081"
     objecttolerance="10"
     borderopacity="1"
     inkscape:current-layer="Layer_1"
     inkscape:cx="355.7827"
     inkscape:cy="153.81307"
     inkscape:window-y="24"
     inkscape:window-x="75"
     inkscape:window-width="927"
     showgrid="false"
     inkscape:pageopacity="0"
     inkscape:window-height="1028" /><g
     id="g3"
     transform="translate(712,0)"><path
       id="path5"
       d="m 279.36,129 c 0,0 6.771,34.46 33.618,16.285 34.78,-23.547 46.609,-19.636 50.464,-16.235 3.854,3.401 0.72,11.187 -0.888,14.883 -7.59,17.471 -38.28,44.744 -51.913,58.827 -10.236,10.575 -23.309,21.95 -47.892,-8.692"
       style="fill:#ffffff"
       inkscape:connector-curvature="0" /><path
       id="path7"
       d="m 261.19,195.32 c -0.691,-0.862 -0.553,-2.121 0.309,-2.813 0.86,-0.694 2.119,-0.555 2.811,0.307 11.75,14.656 20.513,19.104 27.028,19.07 6.944,0.049 12.611,-5.057 17.866,-10.518 6.882,-7.106 17.938,-17.421 28.218,-28.136 10.271,-10.682 19.751,-21.864 23.297,-30.095 1.032,-2.329 2.592,-6.337 2.564,-9.257 -0.011,-1.598 -0.389,-2.646 -1.164,-3.33 -1.072,-0.927 -2.989,-2.053 -6.898,-2.068 -6.716,-0.03 -19.289,3.655 -41.121,18.458 -5.825,3.941 -10.937,5.635 -15.429,5.637 -4.254,0.008 -7.838,-1.558 -10.629,-3.813 -2.8,-2.258 -4.874,-5.167 -6.434,-8.019 -3.106,-5.707 -4.183,-11.249 -4.21,-11.36 -0.213,-1.085 0.494,-2.136 1.576,-2.348 1.082,-0.214 2.134,0.492 2.348,1.577 0.004,0 0.131,0.668 0.456,1.841 0.324,1.175 0.837,2.81 1.57,4.618 1.461,3.624 3.847,7.897 7.199,10.572 2.244,1.793 4.843,2.924 8.123,2.932 3.46,0 7.803,-1.309 13.186,-4.95 22.171,-14.989 35.231,-19.119 43.364,-19.148 4.712,-0.015 7.779,1.495 9.545,3.071 1.927,1.7 2.53,4.113 2.52,6.329 -0.027,4.137 -1.846,8.374 -2.896,10.85 -4.042,9.238 -13.702,20.425 -24.081,31.271 -10.373,10.811 -21.477,21.171 -28.229,28.149 -5.31,5.45 -11.716,11.686 -20.741,11.734 -8.47,-0.03 -18.11,-5.56 -30.16,-20.56 z"
       style="fill:#0044aa;fill-opacity:1"
       inkscape:connector-curvature="0" /></g><g
     id="g9"
     transform="translate(712,0)"><path
       id="path11"
       d="m 258.58,85.103 c 0.158,-2.017 0.264,-4.048 0.264,-6.104 0,-42.524 -34.476,-76.999 -77,-76.999 -42.524,0 -77,34.474 -77,76.999 0,2.057 0.104,4.089 0.263,6.104 -27.325,22.289 -44.774,56.225 -44.761,94.237 v 0.086 c 0.023,67.102 54.439,121.48 121.54,121.46 67.101,-0.02 121.49,-54.45 121.47,-121.55 v -0.086 c -0.02,-37.98 -17.46,-71.88 -44.77,-94.147 z"
       style="fill:#ffffff"
       inkscape:connector-curvature="0" /><path
       id="path13"
       d="m 181.85,302.88 v 0.002 h -0.013 C 113.654,302.873 58.377,247.617 58.357,179.432 v -0.078 -0.052 c 0,-38.24 17.394,-72.431 44.691,-95.079 -0.118,-1.715 -0.193,-3.451 -0.193,-5.216 0.002,-43.632 35.37,-79 79.001,-79 43.628,0 78.997,35.37 78.999,79 0,1.766 -0.075,3.502 -0.192,5.216 27.287,22.638 44.678,56.81 44.69,95.038 v 0.085 l -0.002,0.027 c 0,0.007 10e-4,0.017 0.002,0.017 -0.002,68.187 -55.263,123.47 -123.46,123.5 l -0.05,-0.01 z m -0.02,0 v -0.003 z m 0.12,-4 c 65.954,-0.056 119.39,-53.541 119.39,-119.5 v -0.022 -0.021 -0.085 c -0.015,-37.361 -17.167,-70.691 -44.025,-92.601 l 1.265,-1.55 1.993,0.155 -1.993,-0.155 -1.265,1.55 c -0.508,-0.416 -0.782,-1.054 -0.729,-1.707 0.154,-1.982 0.257,-3.96 0.257,-5.947 -0.002,-20.717 -8.392,-39.454 -21.968,-53.034 -13.58,-13.579 -32.32,-21.971 -53.03,-21.971 -20.717,0 -39.456,8.39 -53.034,21.965 -13.58,13.581 -21.97,32.318 -21.97,53.035 0,1.989 0.101,3.967 0.257,5.945 0.05,0.654 -0.222,1.292 -0.729,1.707 -26.87,21.921 -44.025,55.271 -44.025,92.644 v 0.02 h -10e-4 l 10e-4,0.024 v 0.086 c 0.021,65.98 53.519,119.46 119.5,119.45 0,0.002 0,0 0.054,0 h 0.04 z"
       style="fill:#0044aa;fill-opacity:1"
       inkscape:connector-curvature="0" /></g><g
     id="g15"
     transform="translate(712,0)"><g
       id="g17"><path
         id="path19"
         d="m 68.26,186.44 c 0,0 25.451,42.492 -11.959,54.842 -48.468,16 -54.301,33.47 -54.301,41.3 0,7.834 9.427,12.105 14,14 21.596,8.945 70.166,1.377 93.5,0 17.527,-1.034 38,-4.5 30,-63.5"
         style="fill:#ffffff"
         inkscape:connector-curvature="0" /><path
         id="path21"
         d="M 15.234,298.43 C 12.898,297.457 9.245,295.87 6.054,293.386 2.892,290.935 0.007,287.369 0,282.582 -0.023,278.157 1.729,271.2 9.577,263.565 c 7.842,-7.655 21.684,-16.118 46.096,-24.182 7.601,-2.519 12.265,-6.215 15.119,-10.434 2.848,-4.224 3.921,-9.083 3.923,-14.066 0.021,-10.163 -4.597,-20.608 -6.914,-25.101 -0.77,-1.501 -1.257,-2.313 -1.257,-2.314 v 0.002 c -0.569,-0.949 -0.261,-2.177 0.686,-2.744 0.947,-0.568 2.177,-0.261 2.744,0.687 0.059,0.152 8.695,14.383 8.741,29.471 0.002,5.543 -1.208,11.267 -4.606,16.303 -3.392,5.041 -8.934,9.28 -17.181,11.996 -24.054,7.937 -37.362,16.207 -44.554,23.243 -7.188,7.04 -8.353,12.73 -8.374,16.14 -0.009,3.047 1.821,5.533 4.515,7.649 2.666,2.088 6.012,3.58 8.25,4.503 7.292,3.04 18.396,4.159 30.598,4.145 21.738,0.004 46.946,-3.402 62.02,-4.293 7.377,-0.423 14.782,-1.334 20.255,-6.156 5.479,-4.789 9.638,-13.89 9.646,-31.916 0,-6.52 -0.548,-14.182 -1.765,-23.161 -0.148,-1.096 0.617,-2.104 1.713,-2.252 1.094,-0.148 2.102,0.616 2.25,1.713 1.238,9.123 1.803,16.957 1.803,23.7 0.008,18.549 -4.306,29.042 -11.01,34.925 -6.711,5.851 -15.197,6.688 -22.658,7.14 -14.801,0.865 -40.146,4.299 -62.254,4.303 -12.442,-0.02 -23.87,-1.05 -32.122,-4.45 z"
         style="fill:#0044aa;fill-opacity:1"
         inkscape:connector-curvature="0" /></g><g
       id="g23"><path
         id="path25"
         d="m 295.44,186.44 c 0,0 -25.451,42.492 11.96,54.842 48.467,16 54.301,33.466 54.301,41.299 0,7.834 -9.429,12.105 -14,14 -21.597,8.945 -70.166,1.377 -93.498,0 -17.524,-1.034 -37.995,-4.5 -29.996,-63.5"
         style="fill:#ffffff"
         inkscape:connector-curvature="0" /><path
         id="path27"
         d="m 254.08,298.58 c -7.461,-0.452 -15.944,-1.288 -22.655,-7.14 -6.704,-5.88 -11.02,-16.375 -11.011,-34.925 0.002,-6.741 0.565,-14.576 1.807,-23.698 0.147,-1.098 1.155,-1.862 2.25,-1.715 1.093,0.147 1.859,1.155 1.713,2.25 -1.221,8.981 -1.77,16.645 -1.77,23.163 0.011,18.027 4.169,27.128 9.647,31.917 5.472,4.821 12.877,5.731 20.254,6.155 15.068,0.891 40.276,4.297 62.015,4.293 12.203,0.015 23.307,-1.105 30.599,-4.144 2.236,-0.923 5.585,-2.418 8.251,-4.503 2.693,-2.115 4.523,-4.603 4.515,-7.649 -0.021,-3.407 -1.185,-9.102 -8.372,-16.158 -7.191,-7.036 -20.499,-15.306 -44.556,-23.243 -8.248,-2.715 -13.791,-6.955 -17.182,-11.995 -3.399,-5.038 -4.609,-10.761 -4.607,-16.304 0.046,-15.087 8.684,-29.317 8.742,-29.469 0.567,-0.947 1.796,-1.256 2.744,-0.687 0.945,0.567 1.254,1.794 0.687,2.742 0,0.002 -0.487,0.813 -1.256,2.313 -0.77,1.503 -1.801,3.658 -2.83,6.246 -2.062,5.175 -4.093,12.085 -4.087,18.854 0.004,4.981 1.076,9.844 3.923,14.066 2.855,4.219 7.52,7.916 15.12,10.436 24.412,8.063 38.255,16.526 46.096,24.181 7.848,7.635 9.602,14.591 9.579,19.018 -0.007,4.786 -2.894,8.352 -6.056,10.804 -3.191,2.481 -6.843,4.071 -9.179,5.044 -8.253,3.397 -19.68,4.436 -32.131,4.45 -22.08,0.01 -47.42,-3.43 -62.22,-4.29 z"
         style="fill:#0044aa;fill-opacity:1"
         inkscape:connector-curvature="0" /></g></g><g
     id="g29"
     transform="translate(712,0)"><g
       id="g31"><g
         id="g33"><circle
           id="circle35"
           cy="121.03"
           cx="181.85001"
           r="18"
           style="fill:#ffffff"
           sodipodi:cx="181.85001"
           sodipodi:cy="121.03"
           sodipodi:rx="18"
           sodipodi:ry="18" /><path
           id="path37"
           d="m 161.85,121.03 c 0,-11.048 8.953,-20 20,-20 v 3.999 c -8.837,0.017 -15.984,7.164 -16,16.001 0.016,8.834 7.164,15.984 16,15.999 8.834,-0.015 15.982,-7.164 15.999,-15.999 -0.017,-8.837 -7.164,-15.984 -15.999,-16.001 v -3.999 c 11.045,0 19.998,8.952 20,20 -0.002,11.045 -8.954,19.998 -20,20 -11.04,0 -20,-8.95 -20,-20 z"
           style="fill:#0044aa;fill-opacity:1"
           inkscape:connector-curvature="0" /></g><g
         id="g39"><g
           id="g41" /><g
           id="g47" /></g><g
         id="g53"><path
           id="path55"
           d="m 207.26,73.919 h -50.804 c -17.45,0 -31.598,12.788 -31.598,28.563 0,15.775 14.147,28.563 31.598,28.563 10.412,0 19.645,-4.555 25.402,-11.577 5.757,7.022 14.99,11.577 25.402,11.577 17.45,0 31.598,-12.788 31.598,-28.563 0,-15.775 -14.15,-28.561 -31.6,-28.561 z"
           style="fill:#ffffff"
           inkscape:connector-curvature="0" /><path
           id="path57"
           d="m 181.85,122.34 c -6.167,6.515 -15.272,10.603 -25.402,10.605 C 138.09,132.914 122.98,119.46 122.949,102.483 122.98,85.504 138.09,72.05 156.448,72.019 h 50.805 v 3.8 h -50.805 c -8.26,-0.002 -15.706,3.027 -21.068,7.875 -5.364,4.854 -8.628,11.479 -8.63,18.789 0.002,7.307 3.267,13.932 8.628,18.786 5.364,4.848 12.81,7.877 21.07,7.875 9.856,0.002 18.552,-4.314 23.933,-10.881 0.36,-0.441 0.898,-0.695 1.47,-0.695 0.569,0 1.107,0.254 1.47,0.695 5.378,6.566 14.077,10.883 23.933,10.881 8.257,0.002 15.706,-3.027 21.067,-7.875 5.363,-4.854 8.626,-11.479 8.628,-18.786 -0.002,-7.31 -3.265,-13.934 -8.628,-18.789 -5.361,-4.848 -12.811,-7.877 -21.067,-7.875 v -3.8 c 18.355,0.031 33.468,13.485 33.496,30.464 -0.028,16.977 -15.141,30.431 -33.496,30.462 -10.14,0.01 -19.24,-4.08 -25.41,-10.59 z"
           style="fill:#0044aa;fill-opacity:1"
           inkscape:connector-curvature="0" /></g><path
         style="fill:#0044aa;fill-opacity:1"
         inkscape:connector-curvature="0"
         id="path37-9"
         d="m 161.56133,100.73392 c 0,-11.048 9.19569,-13.326013 20.24269,-13.326013 11.04719,0 19.75731,0.87713 19.75731,13.326013 -0.002,11.045 -8.954,19.998 -20,20 -11.04,0 -20,-8.95 -20,-20 z"
         sodipodi:nodetypes="scccs" /></g><g
       id="g59"><g
         id="g61"><g
           id="path3179"><path
             id="path64"
             d="m 232.17,46.36 c 0,11.299 -9.159,20.459 -20.459,20.459 -11.299,0 -20.459,-9.16 -20.459,-20.459 0,-11.299 9.16,-20.459 20.459,-20.459 11.31,0 20.46,9.16 20.46,20.459 z"
             inkscape:connector-curvature="0"
             style="fill:#ffffff" /><path
             id="path66"
             d="m 189.26,46.36 c 0.002,-12.404 10.056,-22.457 22.46,-22.459 12.404,0.002 22.457,10.055 22.459,22.459 C 234.177,58.765 224.124,68.818 211.72,68.819 199.31,68.817 189.26,58.765 189.26,46.36 z m 4,0 c 0.017,10.194 8.264,18.44 18.459,18.459 10.193,-0.019 18.44,-8.266 18.457,-18.459 -0.017,-10.193 -8.264,-18.44 -18.457,-18.459 -10.2,0.018 -18.45,8.266 -18.46,18.459 z"
             style="fill:#0044aa;fill-opacity:1"
             inkscape:connector-curvature="0" /></g><g
           id="path3183"><path
             id="path69"
             d="m 213.36,50.292 c 0,3.65 -2.959,6.61 -6.609,6.61 -3.65,0 -6.609,-2.96 -6.609,-6.61 0,-3.651 2.959,-6.61 6.609,-6.61 3.65,0 6.61,2.959 6.61,6.61 z"
             style="fill:#0044aa;fill-opacity:1"
             inkscape:connector-curvature="0" /></g></g><g
         id="g71"><g
           id="path3177"><path
             id="path74"
             d="m 172.45,46.36 c 0,11.299 -9.16,20.459 -20.459,20.459 -11.299,0 -20.459,-9.16 -20.459,-20.459 0,-11.299 9.16,-20.459 20.459,-20.459 11.3,0 20.46,9.16 20.46,20.459 z"
             inkscape:connector-curvature="0"
             style="fill:#ffffff" /><path
             id="path76"
             d="m 129.53,46.36 c 0.002,-12.405 10.056,-22.459 22.459,-22.459 12.405,0 22.459,10.054 22.459,22.459 0,12.403 -10.054,22.457 -22.459,22.459 -12.4,-0.002 -22.46,-10.056 -22.46,-22.459 z m 4,0 c 0.019,10.193 8.266,18.44 18.459,18.458 10.193,-0.019 18.44,-8.265 18.459,-18.458 -0.019,-10.194 -8.266,-18.442 -18.459,-18.459 -10.19,0.017 -18.44,8.266 -18.46,18.459 z"
             style="fill:#0044aa;fill-opacity:1"
             inkscape:connector-curvature="0" /></g><g
           id="path2515"><path
             id="path79"
             d="m 164.55,50.292 c 0,3.65 -2.959,6.61 -6.609,6.61 -3.65,0 -6.61,-2.96 -6.61,-6.61 0,-3.651 2.96,-6.61 6.61,-6.61 3.65,0 6.61,2.959 6.61,6.61 z"
             style="fill:#0044aa;fill-opacity:1"
             inkscape:connector-curvature="0" /></g></g></g><g
       id="g81"><g
         id="g83"><g
           id="g85"><path
             id="path87"
             d="m 115.38,135.83 c -1.101,-0.086 -1.924,-1.049 -1.836,-2.15 1.426,-18.033 16.706,-31.638 34.75,-31.634 0.942,0 1.891,0.037 2.846,0.113 1.101,0.088 1.924,1.051 1.836,2.152 -0.086,1.1 -1.051,1.922 -2.152,1.836 -0.851,-0.067 -1.695,-0.101 -2.531,-0.101 -16.021,0.002 -29.516,12.06 -30.761,27.948 -0.082,1.046 -0.958,1.843 -1.991,1.843 -0.07,0 -0.12,0 -0.17,-0.01 z"
             style="fill:#0044aa;fill-opacity:1"
             inkscape:connector-curvature="0" /></g><g
           id="g89"><path
             id="path91"
             d="m 108.18,121.43 c -1.101,-0.088 -1.923,-1.052 -1.837,-2.153 1.428,-18.032 16.706,-31.636 34.75,-31.634 0.941,0 1.893,0.039 2.846,0.114 1.101,0.086 1.924,1.05 1.835,2.151 -0.086,1.101 -1.049,1.923 -2.15,1.835 -0.852,-0.067 -1.696,-0.1 -2.531,-0.1 -16.023,0.004 -29.514,12.061 -30.762,27.948 -0.082,1.048 -0.959,1.844 -1.993,1.844 -0.07,0.01 -0.12,0.01 -0.17,0 z"
             style="fill:#0044aa;fill-opacity:1"
             inkscape:connector-curvature="0" /></g><g
           id="g93"><path
             id="path95"
             d="m 122.57,150.23 c -1.101,-0.086 -1.924,-1.049 -1.835,-2.151 1.427,-18.033 16.707,-31.637 34.751,-31.633 0.942,0 1.891,0.037 2.845,0.113 1.101,0.086 1.924,1.051 1.835,2.151 -0.086,1.101 -1.051,1.924 -2.151,1.835 -0.85,-0.066 -1.694,-0.101 -2.529,-0.101 -16.022,0.004 -29.516,12.061 -30.764,27.95 -0.082,1.046 -0.957,1.842 -1.99,1.842 -0.07,0.01 -0.12,0 -0.18,0 z"
             style="fill:#0044aa;fill-opacity:1"
             inkscape:connector-curvature="0" /></g></g><g
         id="g97"><g
           id="g99"><path
             id="path101"
             d="m 246.17,134 c -1.252,-15.888 -14.743,-27.944 -30.764,-27.948 -0.836,0 -1.679,0.033 -2.531,0.1 l 0.002,0.002 c -1.103,0.087 -2.065,-0.736 -2.153,-1.836 -0.087,-1.103 0.734,-2.066 1.837,-2.153 0.953,-0.075 1.902,-0.112 2.846,-0.112 18.043,-0.004 33.319,13.602 34.751,31.633 0.085,1.103 -0.735,2.066 -1.836,2.151 -0.054,0.004 -0.106,0.006 -0.16,0.006 -1.04,0 -1.92,-0.8 -2,-1.84 z"
             style="fill:#0044aa;fill-opacity:1"
             inkscape:connector-curvature="0" /></g><g
           id="g103"><path
             id="path105"
             d="m 253.37,119.6 c -1.25,-15.889 -14.742,-27.945 -30.762,-27.949 -0.836,0 -1.68,0.033 -2.53,0.102 -1.102,0.087 -2.064,-0.734 -2.151,-1.836 -0.089,-1.101 0.734,-2.066 1.836,-2.153 0.954,-0.075 1.902,-0.112 2.846,-0.112 18.042,-0.004 33.319,13.602 34.751,31.633 0.087,1.102 -0.736,2.066 -1.836,2.151 -0.054,0.004 -0.106,0.006 -0.16,0.006 -1.04,0 -1.92,-0.8 -2,-1.84 z"
             style="fill:#0044aa;fill-opacity:1"
             inkscape:connector-curvature="0" /></g><g
           id="g107"><path
             id="path109"
             d="m 238.97,148.39 c -1.25,-15.889 -14.743,-27.944 -30.764,-27.948 -0.837,0 -1.68,0.033 -2.528,0.102 -1.103,0.087 -2.064,-0.735 -2.152,-1.834 -0.089,-1.102 0.733,-2.067 1.835,-2.154 0.953,-0.075 1.901,-0.114 2.846,-0.114 18.044,-0.002 33.321,13.603 34.752,31.634 0.087,1.102 -0.735,2.064 -1.837,2.151 -0.054,0.004 -0.106,0.006 -0.159,0.006 -1.03,0 -1.91,-0.8 -1.99,-1.85 z"
             style="fill:#0044aa;fill-opacity:1"
             inkscape:connector-curvature="0" /></g></g></g></g><g
     id="g111"
     transform="translate(712,0)"><g
       id="path3310"><path
         id="path114"
         d="m 120.38,269.44 c -17.732,-7.742 -36.64,-3.631 -38.632,0.931 -2.171,4.972 7.855,21.197 25.588,28.94 13.74,6 27.232,7.121 34.284,3.479 0.167,6.789 5.121,13.729 12.998,17.168 3.028,1.322 6.123,1.982 9.104,2.032 -4.873,-5.076 -6.752,-11.87 -4.221,-17.666 2.531,-5.796 8.792,-9.035 15.826,-8.91 -2.062,-2.153 -4.637,-4.004 -7.665,-5.325 -7.877,-3.439 -16.343,-2.338 -21.44,2.163 -2.12,-7.63 -12.1,-16.8 -25.84,-22.8 z"
         style="fill:#ffffff"
         inkscape:connector-curvature="0" /><path
         id="path116"
         d="m 163.68,323.99 c -3.251,-0.055 -6.608,-0.775 -9.87,-2.199 -7.452,-3.266 -12.599,-9.446 -13.888,-16.149 -2.58,0.838 -5.556,1.227 -8.819,1.231 -7.204,-0.007 -15.841,-1.919 -24.575,-5.729 -8.377,-3.661 -15.065,-9.113 -19.705,-14.499 -4.616,-5.44 -7.298,-10.59 -7.377,-14.661 0.002,-0.826 0.126,-1.642 0.459,-2.411 1.195,-2.428 3.692,-3.641 7.015,-4.759 3.346,-1.052 7.642,-1.704 12.493,-1.708 6.621,0.002 14.271,1.234 21.759,4.503 l -0.801,1.832 -0.798,1.832 c -6.904,-3.017 -14.032,-4.167 -20.16,-4.165 -4.482,-0.004 -8.432,0.618 -11.293,1.521 -2.883,0.833 -4.558,2.254 -4.547,2.543 -0.057,0.126 -0.126,0.396 -0.126,0.812 -0.078,2.153 2.115,7.145 6.409,12.053 4.268,4.962 10.522,10.061 18.272,13.442 8.287,3.623 16.48,5.398 22.975,5.393 3.987,0.006 7.319,-0.678 9.593,-1.857 0.612,-0.317 1.344,-0.296 1.935,0.057 0.593,0.35 0.962,0.982 0.981,1.671 0.113,5.836 4.526,12.222 11.799,15.383 1.261,0.552 2.531,0.976 3.794,1.28 -1.818,-2.991 -2.835,-6.3 -2.838,-9.641 -0.002,-2.115 0.413,-4.236 1.294,-6.239 2.284,-5.212 7.102,-8.524 12.719,-9.668 -1.084,-0.731 -2.261,-1.384 -3.526,-1.936 -2.891,-1.262 -5.857,-1.855 -8.652,-1.855 -4.222,0 -8.029,1.351 -10.663,3.686 -0.516,0.455 -1.235,0.614 -1.893,0.42 -0.66,-0.197 -1.176,-0.722 -1.358,-1.384 -1.715,-6.579 -11.311,-15.734 -24.715,-21.515 l 0.798,-1.832 0.801,-1.832 c 12.658,5.594 22.313,13.575 25.97,21.466 3.166,-1.983 7.016,-3.007 11.059,-3.009 3.359,0.002 6.862,0.709 10.252,2.19 3.277,1.431 6.069,3.435 8.31,5.774 0.564,0.589 0.713,1.459 0.379,2.203 -0.333,0.744 -1.083,1.207 -1.899,1.181 -0.082,-0.005 -0.187,-0.005 -0.316,-0.005 -6.283,0.015 -11.518,2.914 -13.602,7.718 -0.65,1.483 -0.958,3.041 -0.958,4.637 -0.006,3.686 1.686,7.612 4.788,10.841 0.56,0.583 0.715,1.444 0.392,2.185 -0.321,0.732 -1.04,1.201 -1.836,1.201 0.01,0.01 0,0.01 -0.01,0.01 z"
         style="fill:#0044aa;fill-opacity:1"
         inkscape:connector-curvature="0" /></g><g
       id="path3348"
       style="opacity:0.3137"><path
         id="path119"
         d="m 98.342,265.16 c 4.522,0.96 9.414,2.483 14.383,4.653 16.883,7.371 28.171,18.898 25.188,25.729 -2.982,6.828 -19.104,6.383 -35.987,-0.989 -3.312,-1.446 -6.39,-3.044 -9.206,-4.743 3.973,3.611 8.877,6.988 14.612,9.493 13.739,5.999 27.24,7.123 34.292,3.481 0.166,6.789 5.104,13.74 12.981,17.18 3.028,1.323 6.122,1.975 9.103,2.023 -4.873,-5.076 -6.745,-11.869 -4.215,-17.666 2.531,-5.797 8.795,-9.041 15.828,-8.916 -2.062,-2.154 -4.641,-3.973 -7.67,-5.293 -7.876,-3.44 -16.346,-2.354 -21.442,2.146 -2.122,-7.647 -12.092,-16.81 -25.831,-22.81 -7.6,-3.32 -15.41,-4.42 -22.028,-4.28 z"
         style="fill:#0088cc;fill-opacity:1"
         inkscape:connector-curvature="0" /></g><g
       id="path3346"><path
         id="path122"
         d="m 100.87,272.56 c 1.146,1.557 0.816,3.746 -0.739,4.896 -1.557,1.147 -3.748,0.815 -4.895,-0.74 -1.147,-1.555 -0.816,-3.746 0.739,-4.894 1.553,-1.16 3.745,-0.83 4.896,0.73 z"
         style="fill:#0044aa;fill-opacity:1"
         inkscape:connector-curvature="0" /></g></g><metadata
     id="metadata3225"><rdf:RDF><cc:Work><dc:format>image/svg+xml</dc:format><dc:type
           rdf:resource="http://purl.org/dc/dcmitype/StillImage" /><cc:license
           rdf:resource="http://creativecommons.org/licenses/publicdomain/" /><dc:publisher><cc:Agent
             rdf:about="http://openclipart.org/"><dc:title>Openclipart</dc:title></cc:Agent></dc:publisher><dc:title /><dc:date>2012-05-10T12:50:13</dc:date><dc:description>Cartoon Walrus in the style of lemmling</dc:description><dc:source>https://openclipart.org/detail/169963/cartoon-walrus-by-studiofibonacci</dc:source><dc:creator><cc:Agent><dc:title>StudioFibonacci</dc:title></cc:Agent></dc:creator><dc:subject><rdf:Bag><rdf:li>arctic</rdf:li><rdf:li>fish</rdf:li><rdf:li>mammal</rdf:li><rdf:li>tusk</rdf:li><rdf:li>walrus</rdf:li></rdf:Bag></dc:subject></cc:Work><cc:License
         rdf:about="http://creativecommons.org/licenses/publicdomain/"><cc:permits
           rdf:resource="http://creativecommons.org/ns#Reproduction" /><cc:permits
           rdf:resource="http://creativecommons.org/ns#Distribution" /><cc:permits
           rdf:resource="http://creativecommons.org/ns#DerivativeWorks" /></cc:License></rdf:RDF></metadata><path
     inkscape:connector-curvature="0"
     id="path116-8"
     d="m 875.66076,323.54255 c -3.251,-0.055 -6.608,-0.775 -9.87,-2.199 -7.452,-3.266 -12.599,-9.446 -13.888,-16.149 -2.58,0.838 -5.556,1.227 -8.819,1.231 -7.204,-0.007 -15.841,-1.919 -24.575,-5.729 -8.377,-3.661 -15.065,-9.113 -19.705,-14.499 -4.616,-5.44 -7.298,-10.59 -7.377,-14.661 0.002,-0.826 0.126,-1.642 0.459,-2.411 1.195,-2.428 3.692,-3.641 7.015,-4.759 3.346,-1.052 7.642,-1.704 12.493,-1.708 6.621,0.002 14.271,1.234 21.759,4.503 l -0.801,1.832 -0.798,1.832 c -6.904,-3.017 -14.032,-4.167 -20.16,-4.165 -4.482,-0.004 -8.432,0.618 -11.293,1.521 -2.883,0.833 -4.558,2.254 -4.547,2.543 -0.057,0.126 -0.126,0.396 -0.126,0.812 -0.078,2.153 2.115,7.145 6.409,12.053 4.268,4.962 10.522,10.061 18.272,13.442 8.287,3.623 16.48,5.398 22.975,5.393 3.987,0.006 7.319,-0.678 9.593,-1.857 0.612,-0.317 1.344,-0.296 1.935,0.057 0.593,0.35 0.962,0.982 0.981,1.671 0.113,5.836 4.526,12.222 11.799,15.383 1.261,0.552 2.531,0.976 3.794,1.28 -1.818,-2.991 -2.835,-6.3 -2.838,-9.641 -0.002,-2.115 0.413,-4.236 1.294,-6.239 2.284,-5.212 7.102,-8.524 12.719,-9.668 -1.084,-0.731 -2.261,-1.384 -3.526,-1.936 -2.891,-1.262 -5.857,-1.855 -8.652,-1.855 -4.222,0 -8.029,1.351 -10.663,3.686 -0.516,0.455 -1.235,0.614 -1.893,0.42 -0.66,-0.197 -1.176,-0.722 -1.358,-1.384 -1.715,-6.579 -11.311,-15.734 -24.715,-21.515 l 0.798,-1.832 0.801,-1.832 c 12.658,5.594 22.313,13.575 25.97,21.466 3.166,-1.983 7.016,-3.007 11.059,-3.009 3.359,0.002 6.862,0.709 10.252,2.19 3.277,1.431 6.069,3.435 8.31,5.774 0.564,0.589 0.713,1.459 0.379,2.203 -0.333,0.744 -1.083,1.207 -1.899,1.181 -0.082,-0.005 -0.187,-0.005 -0.316,-0.005 -6.283,0.015 -11.518,2.914 -13.602,7.718 -0.65,1.483 -0.958,3.041 -0.958,4.637 -0.006,3.686 1.686,7.612 4.788,10.841 0.56,0.583 0.715,1.444 0.392,2.185 -0.321,0.732 -1.04,1.201 -1.836,1.201 0.01,0.01 0,0.01 -0.01,0.01 z"
     style="fill:#0044aa;fill-opacity:1" /><flowRoot
     xml:space="preserve"
     id="flowRoot3889"
     style="fill:black;stroke:none;stroke-opacity:1;stroke-width:1px;stroke-linejoin:miter;stroke-linecap:butt;fill-opacity:1;font-family:Lato;font-style:normal;font-weight:normal;font-size:40px;line-height:125%;letter-spacing:0px;word-spacing:0px;-inkscape-font-specification:Lato;font-stretch:normal;font-variant:normal"><flowRegion
       id="flowRegion3891"><rect
         id="rect3893"
         width="449.46268"
         height="109.69608"
         x="252.39806"
         y="86.64476"
         style="-inkscape-font-specification:Lato;font-family:Lato;font-weight:normal;font-style:normal;font-stretch:normal;font-variant:normal" /></flowRegion><flowPara
       id="flowPara3895" /></flowRoot><g
     style="font-style:normal;font-weight:normal;font-size:40px;line-height:125%;font-family:Sans;letter-spacing:0px;word-spacing:0px;fill:#000000;fill-opacity:1;stroke:none"
     id="text3063"><path
       d="m 179.73025,136.9497 6.44,0 q 0.966,0 1.61,0.506 0.69,0.506 0.92,1.196 l 8.924,29.992 q 0.368,1.61 0.69,3.174 0.322,1.518 0.552,3.036 0.368,-1.518 0.828,-3.036 0.46,-1.564 0.966,-3.174 l 9.844,-30.176 q 0.23,-0.69 0.782,-1.15 0.598,-0.46 1.426,-0.46 l 3.588,0 q 0.92,0 1.518,0.46 0.598,0.46 0.828,1.15 l 9.614,30.176 q 0.46,1.61 0.874,3.174 0.414,1.564 0.782,3.082 0.276,-1.518 0.598,-3.036 0.368,-1.564 0.782,-3.22 l 9.108,-29.992 q 0.23,-0.736 0.874,-1.196 0.644,-0.506 1.518,-0.506 l 6.164,0 -15.088,46.598 -6.486,0 q -1.196,0 -1.656,-1.564 l -10.304,-31.602 q -0.368,-1.058 -0.598,-2.116 -0.23,-1.104 -0.46,-2.162 -0.23,1.058 -0.506,2.162 -0.23,1.104 -0.552,2.162 l -10.488,31.556 q -0.414,1.564 -1.84,1.564 l -6.164,0 -15.088,-46.598 z"
       style="font-variant:normal;font-stretch:normal;font-size:92px;font-family:Lato;-inkscape-font-specification:Lato;fill:#0044aa"
       id="path3436" /><path
       d="m 275.85587,136.2137 q 5.106,0 9.2,1.702 4.094,1.702 6.992,4.83 2.898,3.128 4.416,7.59 1.564,4.416 1.564,9.89 0,5.52 -1.564,9.936 -1.518,4.416 -4.416,7.544 -2.898,3.128 -6.992,4.83 -4.094,1.656 -9.2,1.656 -5.152,0 -9.292,-1.656 -4.094,-1.702 -6.992,-4.83 -2.898,-3.128 -4.462,-7.544 -1.518,-4.416 -1.518,-9.936 0,-5.474 1.518,-9.89 1.564,-4.462 4.462,-7.59 2.898,-3.128 6.992,-4.83 4.14,-1.702 9.292,-1.702 z m 0,41.584 q 6.9,0 10.304,-4.6 3.404,-4.646 3.404,-12.926 0,-8.326 -3.404,-12.972 -3.404,-4.646 -10.304,-4.646 -3.496,0 -6.118,1.196 -2.576,1.196 -4.324,3.45 -1.702,2.254 -2.576,5.566 -0.828,3.266 -0.828,7.406 0,8.28 3.404,12.926 3.45,4.6 10.442,4.6 z"
       style="font-variant:normal;font-stretch:normal;font-size:92px;font-family:Lato;-inkscape-font-specification:Lato;fill:#0044aa"
       id="path3438" /><path
       d="m 308.32325,183.5477 0,-46.598 4.692,0 q 1.334,0 1.84,0.506 0.506,0.506 0.69,1.748 l 0.506,7.084 q 2.208,-4.784 5.428,-7.452 3.266,-2.714 7.912,-2.714 1.472,0 2.806,0.322 1.38,0.322 2.438,1.012 l -0.598,6.118 q -0.276,1.15 -1.38,1.15 -0.644,0 -1.886,-0.276 -1.242,-0.276 -2.806,-0.276 -2.208,0 -3.956,0.69 -1.748,0.644 -3.128,1.932 -1.334,1.242 -2.392,3.082 -1.058,1.84 -1.932,4.232 l 0,29.44 -8.234,0 z"
       style="font-variant:normal;font-stretch:normal;font-size:92px;font-family:Lato;-inkscape-font-specification:Lato;fill:#0044aa"
       id="path3440" /><path
       d="m 373.62025,183.5477 q -1.748,0 -2.208,-1.702 l -0.736,-5.658 q -2.99,3.634 -6.854,5.842 -3.818,2.162 -8.786,2.162 -4.002,0 -7.268,-1.518 -3.266,-1.564 -5.566,-4.554 -2.3,-2.99 -3.542,-7.452 -1.242,-4.462 -1.242,-10.258 0,-5.152 1.38,-9.568 1.38,-4.462 3.956,-7.728 2.576,-3.266 6.302,-5.106 3.772,-1.886 8.464,-1.886 4.278,0 7.314,1.472 3.082,1.426 5.474,4.048 l 0,-25.852 8.188,0 0,67.758 -4.876,0 z m -15.916,-5.98 q 4.048,0 7.038,-1.84 3.036,-1.84 5.566,-5.198 l 0,-22.494 q -2.3,-3.036 -4.968,-4.278 -2.668,-1.242 -5.98,-1.242 -6.486,0 -9.982,4.646 -3.496,4.646 -3.496,13.248 0,4.554 0.782,7.82 0.782,3.22 2.3,5.336 1.518,2.07 3.726,3.036 2.208,0.966 5.014,0.966 z"
       style="font-variant:normal;font-stretch:normal;font-size:92px;font-family:Lato;-inkscape-font-specification:Lato;fill:#0044aa"
       id="path3442" /><path
       d="m 408.29275,136.9497 6.44,0 q 0.966,0 1.61,0.506 0.69,0.506 0.92,1.196 l 8.924,29.992 q 0.368,1.61 0.69,3.174 0.322,1.518 0.552,3.036 0.368,-1.518 0.828,-3.036 0.46,-1.564 0.966,-3.174 l 9.844,-30.176 q 0.23,-0.69 0.782,-1.15 0.598,-0.46 1.426,-0.46 l 3.588,0 q 0.92,0 1.518,0.46 0.598,0.46 0.828,1.15 l 9.614,30.176 q 0.46,1.61 0.874,3.174 0.414,1.564 0.782,3.082 0.276,-1.518 0.598,-3.036 0.368,-1.564 0.782,-3.22 l 9.108,-29.992 q 0.23,-0.736 0.874,-1.196 0.644,-0.506 1.518,-0.506 l 6.164,0 -15.088,46.598 -6.486,0 q -1.196,0 -1.656,-1.564 l -10.304,-31.602 q -0.368,-1.058 -0.598,-2.116 -0.23,-1.104 -0.46,-2.162 -0.23,1.058 -0.506,2.162 -0.23,1.104 -0.552,2.162 l -10.488,31.556 q -0.414,1.564 -1.84,1.564 l -6.164,0 -15.088,-46.598 z"
       style="font-variant:normal;font-stretch:normal;font-size:92px;font-family:Lato;-inkscape-font-specification:Lato;fill:#0044aa"
       id="path3444" /><path
       d="m 494.14312,136.9497 0,46.598 -8.188,0 0,-46.598 8.188,0 z m 1.748,-14.628 q 0,1.196 -0.506,2.254 -0.46,1.012 -1.288,1.84 -0.782,0.782 -1.886,1.242 -1.058,0.46 -2.254,0.46 -1.196,0 -2.254,-0.46 -1.012,-0.46 -1.794,-1.242 -0.782,-0.828 -1.242,-1.84 -0.46,-1.058 -0.46,-2.254 0,-1.196 0.46,-2.254 0.46,-1.104 1.242,-1.886 0.782,-0.828 1.794,-1.288 1.058,-0.46 2.254,-0.46 1.196,0 2.254,0.46 1.104,0.46 1.886,1.288 0.828,0.782 1.288,1.886 0.506,1.058 0.506,2.254 z"
       style="font-variant:normal;font-stretch:normal;font-size:92px;font-family:Lato;-inkscape-font-specification:Lato;fill:#0044aa"
       id="path3446" /><path
       d="m 516.24469,136.9497 0,46.598 -8.188,0 0,-46.598 8.188,0 z m 1.748,-14.628 q 0,1.196 -0.506,2.254 -0.46,1.012 -1.288,1.84 -0.782,0.782 -1.886,1.242 -1.058,0.46 -2.254,0.46 -1.196,0 -2.254,-0.46 -1.012,-0.46 -1.794,-1.242 -0.782,-0.828 -1.242,-1.84 -0.46,-1.058 -0.46,-2.254 0,-1.196 0.46,-2.254 0.46,-1.104 1.242,-1.886 0.782,-0.828 1.794,-1.288 1.058,-0.46 2.254,-0.46 1.196,0 2.254,0.46 1.104,0.46 1.886,1.288 0.828,0.782 1.288,1.886 0.506,1.058 0.506,2.254 z"
       style="font-variant:normal;font-stretch:normal;font-size:92px;font-family:Lato;-inkscape-font-specification:Lato;fill:#0044aa"
       id="path3448" /><path
       d="m 529.69825,183.5477 0,-46.598 4.922,0 q 1.748,0 2.162,1.702 l 0.644,5.06 q 3.036,-3.358 6.808,-5.428 3.772,-2.07 8.694,-2.07 3.818,0 6.716,1.288 2.944,1.242 4.876,3.588 1.978,2.3 2.99,5.566 1.012,3.266 1.012,7.222 l 0,29.67 -8.234,0 0,-29.67 q 0,-5.29 -2.438,-8.188 -2.392,-2.944 -7.314,-2.944 -3.68,0 -6.854,1.748 -3.128,1.748 -5.75,4.738 l 0,34.316 -8.234,0 z"
       style="font-variant:normal;font-stretch:normal;font-size:92px;font-family:Lato;-inkscape-font-specification:Lato;fill:#0044aa"
       id="path3450" /><path
       d="m 610.71287,183.5477 q -1.196,0 -1.84,-0.368 -0.644,-0.414 -1.012,-1.564 l -0.92,-4.37 q -1.84,1.656 -3.634,2.99 -1.748,1.288 -3.68,2.208 -1.886,0.874 -4.094,1.334 -2.162,0.506 -4.83,0.506 -2.714,0 -5.106,-0.736 -2.392,-0.782 -4.186,-2.3 -1.748,-1.518 -2.806,-3.818 -1.012,-2.346 -1.012,-5.52 0,-2.76 1.518,-5.29 1.518,-2.576 4.922,-4.554 3.404,-1.978 8.878,-3.22 5.474,-1.288 13.432,-1.472 l 0,-3.634 q 0,-5.428 -2.346,-8.188 -2.346,-2.806 -6.854,-2.806 -3.036,0 -5.106,0.782 -2.024,0.736 -3.542,1.702 -1.472,0.92 -2.576,1.702 -1.058,0.736 -2.116,0.736 -0.828,0 -1.426,-0.414 -0.598,-0.46 -1.012,-1.104 l -1.472,-2.622 q 3.864,-3.726 8.326,-5.566 4.462,-1.84 9.89,-1.84 3.91,0 6.946,1.288 3.036,1.288 5.106,3.588 2.07,2.3 3.128,5.566 1.058,3.266 1.058,7.176 l 0,29.808 -3.634,0 z m -17.572,-5.014 q 2.162,0 3.956,-0.414 1.794,-0.46 3.358,-1.242 1.61,-0.828 3.036,-1.978 1.472,-1.196 2.852,-2.668 l 0,-9.66 q -5.658,0.184 -9.66,0.92 -3.956,0.69 -6.486,1.84 -2.484,1.15 -3.634,2.714 -1.104,1.564 -1.104,3.496 0,1.84 0.598,3.174 0.598,1.334 1.61,2.208 1.058,0.828 2.438,1.242 1.426,0.368 3.036,0.368 z"
       style="font-variant:normal;font-stretch:normal;font-size:92px;font-family:Lato;-inkscape-font-specification:Lato;fill:#0044aa"
       id="path3452" /><path
       d="m 665.2775,136.9497 0,62.376 -8.188,0 0,-22.678 q -2.944,3.404 -6.716,5.474 -3.726,2.07 -8.556,2.07 -4.002,0 -7.268,-1.518 -3.266,-1.564 -5.566,-4.554 -2.3,-2.99 -3.542,-7.452 -1.242,-4.462 -1.242,-10.258 0,-5.152 1.38,-9.568 1.38,-4.462 3.956,-7.728 2.576,-3.266 6.302,-5.106 3.772,-1.886 8.464,-1.886 4.554,0 7.682,1.61 3.174,1.61 5.658,4.554 l 0.552,-3.634 q 0.46,-1.702 2.208,-1.702 l 4.876,0 z m -20.792,40.618 q 4.048,0 7.038,-1.84 3.036,-1.84 5.566,-5.198 l 0,-22.54 q -2.208,-2.944 -4.922,-4.186 -2.714,-1.288 -6.026,-1.288 -6.486,0 -9.982,4.646 -3.496,4.646 -3.496,13.248 0,4.554 0.782,7.82 0.782,3.22 2.3,5.336 1.518,2.07 3.726,3.036 2.208,0.966 5.014,0.966 z"
       style="font-variant:normal;font-stretch:normal;font-size:92px;font-family:Lato;-inkscape-font-specification:Lato;fill:#0044aa"
       id="path3454" /></g><g
     style="font-style:normal;font-weight:normal;font-size:40px;line-height:125%;font-family:Sans;letter-spacing:0px;word-spacing:0px;fill:#777777;fill-opacity:1;stroke:none"
     id="text3069"><path
       d="m 212.27131,267.5621 -4.8,0 q -0.832,0 -1.344,-0.416 -0.512,-0.416 -0.768,-1.056 l -4.288,-11.072 -20.576,0 -4.288,11.072 q -0.192,0.576 -0.736,1.024 -0.544,0.448 -1.344,0.448 l -4.8,0 18.336,-45.856 6.272,0 18.336,45.856 z m -30.048,-17.024 17.12,0 -7.2,-18.656 q -0.352,-0.832 -0.704,-1.92 -0.32,-1.088 -0.672,-2.336 -0.32,1.248 -0.672,2.368 -0.32,1.088 -0.672,1.92 l -7.2,18.624 z"
       style="font-variant:normal;font-stretch:normal;font-size:64px;font-family:Lato;-inkscape-font-specification:Lato;fill:#777777;fill-opacity:1"
       id="path3405" /><path
       d="m 222.91031,220.4261 0,47.136 -5.696,0 0,-47.136 5.696,0 z"
       style="font-variant:normal;font-stretch:normal;font-size:64px;font-family:Lato;-inkscape-font-specification:Lato;fill:#777777;fill-opacity:1"
       id="path3407" /><path
       d="m 237.52331,235.1461 0,20.672 q 0,3.68 1.664,5.696 1.696,2.016 5.152,2.016 2.496,0 4.704,-1.184 2.208,-1.184 4.064,-3.296 l 0,-23.904 5.696,0 0,32.416 -3.392,0 q -1.216,0 -1.536,-1.184 l -0.448,-3.488 q -2.112,2.336 -4.736,3.776 -2.624,1.408 -6.016,1.408 -2.656,0 -4.704,-0.864 -2.016,-0.896 -3.392,-2.496 -1.376,-1.6 -2.08,-3.872 -0.672,-2.272 -0.672,-5.024 l 0,-20.672 5.696,0 z"
       style="font-variant:normal;font-stretch:normal;font-size:64px;font-family:Lato;-inkscape-font-specification:Lato;fill:#777777;fill-opacity:1"
       id="path3409" /><path
       d="m 264.63631,267.5621 0,0 z m 13.088,0.512 q -3.84,0 -5.92,-2.144 -2.048,-2.144 -2.048,-6.176 l 0,-19.84 -3.904,0 q -0.512,0 -0.864,-0.288 -0.352,-0.32 -0.352,-0.96 l 0,-2.272 5.312,-0.672 1.312,-10.016 q 0.096,-0.48 0.416,-0.768 0.352,-0.32 0.896,-0.32 l 2.88,0 0,11.168 22.4,0 0,31.776 -5.696,0 0,-27.648 -16.704,0 0,19.456 q 0,2.048 0.992,3.04 0.992,0.992 2.56,0.992 0.896,0 1.536,-0.224 0.672,-0.256 1.152,-0.544 0.48,-0.288 0.8,-0.512 0.352,-0.256 0.608,-0.256 0.448,0 0.8,0.544 l 1.664,2.72 q -1.472,1.376 -3.552,2.176 -2.08,0.768 -4.288,0.768 z m 21.536,-43.328 q 0,0.832 -0.352,1.568 -0.32,0.704 -0.896,1.248 -0.544,0.544 -1.28,0.864 -0.736,0.32 -1.568,0.32 -0.832,0 -1.568,-0.32 -0.704,-0.32 -1.248,-0.864 -0.544,-0.544 -0.864,-1.248 -0.32,-0.736 -0.32,-1.568 0,-0.832 0.32,-1.568 0.32,-0.768 0.864,-1.312 0.544,-0.576 1.248,-0.896 0.736,-0.32 1.568,-0.32 0.832,0 1.568,0.32 0.736,0.32 1.28,0.896 0.576,0.544 0.896,1.312 0.352,0.736 0.352,1.568 z"
       style="font-variant:normal;font-stretch:normal;font-size:64px;font-family:Lato;-inkscape-font-specification:Lato;fill:#777777;fill-opacity:1"
       id="path3411" /><path
       d="m 313.16331,235.1461 0,32.416 -5.696,0 0,-32.416 5.696,0 z m 1.216,-10.176 q 0,0.832 -0.352,1.568 -0.32,0.704 -0.896,1.28 -0.544,0.544 -1.312,0.864 -0.736,0.32 -1.568,0.32 -0.832,0 -1.568,-0.32 -0.704,-0.32 -1.248,-0.864 -0.544,-0.576 -0.864,-1.28 -0.32,-0.736 -0.32,-1.568 0,-0.832 0.32,-1.568 0.32,-0.768 0.864,-1.312 0.544,-0.576 1.248,-0.896 0.736,-0.32 1.568,-0.32 0.832,0 1.568,0.32 0.768,0.32 1.312,0.896 0.576,0.544 0.896,1.312 0.352,0.736 0.352,1.568 z"
       style="font-variant:normal;font-stretch:normal;font-size:64px;font-family:Lato;-inkscape-font-specification:Lato;fill:#777777;fill-opacity:1"
       id="path3413" /><path
       d="m 349.33831,235.1461 0,43.392 -5.696,0 0,-15.776 q -2.048,2.368 -4.672,3.808 -2.592,1.44 -5.952,1.44 -2.784,0 -5.056,-1.056 -2.272,-1.088 -3.872,-3.168 -1.6,-2.08 -2.464,-5.184 -0.864,-3.104 -0.864,-7.136 0,-3.584 0.96,-6.656 0.96,-3.104 2.752,-5.376 1.792,-2.272 4.384,-3.552 2.624,-1.312 5.888,-1.312 3.168,0 5.344,1.12 2.208,1.12 3.936,3.168 l 0.384,-2.528 q 0.32,-1.184 1.536,-1.184 l 3.392,0 z m -14.464,28.256 q 2.816,0 4.896,-1.28 2.112,-1.28 3.872,-3.616 l 0,-15.68 q -1.536,-2.048 -3.424,-2.912 -1.888,-0.896 -4.192,-0.896 -4.512,0 -6.944,3.232 -2.432,3.232 -2.432,9.216 0,3.168 0.544,5.44 0.544,2.24 1.6,3.712 1.056,1.44 2.592,2.112 1.536,0.672 3.488,0.672 z"
       style="font-variant:normal;font-stretch:normal;font-size:64px;font-family:Lato;-inkscape-font-specification:Lato;fill:#777777;fill-opacity:1"
       id="path3415" /><path
       d="m 415.86031,244.6501 q 0,5.152 -1.632,9.376 -1.632,4.224 -4.608,7.232 -2.976,3.008 -7.168,4.672 -4.16,1.632 -9.216,1.632 l -17.12,0 0,-45.856 17.12,0 q 5.056,0 9.216,1.664 4.192,1.632 7.168,4.672 2.976,3.008 4.608,7.232 1.632,4.224 1.632,9.376 z m -6.368,0 q 0,-4.224 -1.152,-7.552 -1.152,-3.328 -3.264,-5.632 -2.112,-2.304 -5.12,-3.52 -3.008,-1.216 -6.72,-1.216 l -10.912,0 0,35.808 10.912,0 q 3.712,0 6.72,-1.216 3.008,-1.216 5.12,-3.488 2.112,-2.304 3.264,-5.632 1.152,-3.328 1.152,-7.552 z"
       style="font-variant:normal;font-stretch:normal;font-size:64px;font-family:Lato;-inkscape-font-specification:Lato;fill:#777777;fill-opacity:1"
       id="path3417" /><path
       d="m 428.78831,235.1461 0,32.416 -5.696,0 0,-32.416 5.696,0 z m 1.216,-10.176 q 0,0.832 -0.352,1.568 -0.32,0.704 -0.896,1.28 -0.544,0.544 -1.312,0.864 -0.736,0.32 -1.568,0.32 -0.832,0 -1.568,-0.32 -0.704,-0.32 -1.248,-0.864 -0.544,-0.576 -0.864,-1.28 -0.32,-0.736 -0.32,-1.568 0,-0.832 0.32,-1.568 0.32,-0.768 0.864,-1.312 0.544,-0.576 1.248,-0.896 0.736,-0.32 1.568,-0.32 0.832,0 1.568,0.32 0.768,0.32 1.312,0.896 0.576,0.544 0.896,1.312 0.352,0.736 0.352,1.568 z"
       style="font-variant:normal;font-stretch:normal;font-size:64px;font-family:Lato;-inkscape-font-specification:Lato;fill:#777777;fill-opacity:1"
       id="path3419" /><path
       d="m 460.70731,240.9061 q -0.256,0.352 -0.512,0.544 -0.256,0.192 -0.704,0.192 -0.48,0 -1.056,-0.384 -0.576,-0.416 -1.44,-0.896 -0.832,-0.48 -2.08,-0.864 -1.216,-0.416 -3.008,-0.416 -2.4,0 -4.224,0.864 -1.824,0.832 -3.072,2.432 -1.216,1.6 -1.856,3.872 -0.608,2.272 -0.608,5.088 0,2.944 0.672,5.248 0.672,2.272 1.888,3.84 1.248,1.536 2.976,2.368 1.76,0.8 3.936,0.8 2.08,0 3.424,-0.48 1.344,-0.512 2.208,-1.12 0.896,-0.608 1.472,-1.088 0.608,-0.512 1.184,-0.512 0.704,0 1.088,0.544 l 1.6,2.08 q -1.056,1.312 -2.4,2.24 -1.344,0.928 -2.912,1.568 -1.536,0.608 -3.232,0.896 -1.696,0.288 -3.456,0.288 -3.04,0 -5.664,-1.12 -2.592,-1.12 -4.512,-3.232 -1.92,-2.144 -3.008,-5.248 -1.088,-3.104 -1.088,-7.072 0,-3.616 0.992,-6.688 1.024,-3.072 2.944,-5.28 1.952,-2.24 4.768,-3.488 2.848,-1.248 6.528,-1.248 3.424,0 6.016,1.12 2.624,1.088 4.64,3.104 l -1.504,2.048 z"
       style="font-variant:normal;font-stretch:normal;font-size:64px;font-family:Lato;-inkscape-font-specification:Lato;fill:#777777;fill-opacity:1"
       id="path3421" /><path
       d="m 465.51131,267.5621 0,0 z m 13.088,0.512 q -3.84,0 -5.92,-2.144 -2.048,-2.144 -2.048,-6.176 l 0,-19.84 -3.904,0 q -0.512,0 -0.864,-0.288 -0.352,-0.32 -0.352,-0.96 l 0,-2.272 5.312,-0.672 1.312,-10.016 q 0.096,-0.48 0.416,-0.768 0.352,-0.32 0.896,-0.32 l 2.88,0 0,11.168 22.4,0 0,31.776 -5.696,0 0,-27.648 -16.704,0 0,19.456 q 0,2.048 0.992,3.04 0.992,0.992 2.56,0.992 0.896,0 1.536,-0.224 0.672,-0.256 1.152,-0.544 0.48,-0.288 0.8,-0.512 0.352,-0.256 0.608,-0.256 0.448,0 0.8,0.544 l 1.664,2.72 q -1.472,1.376 -3.552,2.176 -2.08,0.768 -4.288,0.768 z m 21.536,-43.328 q 0,0.832 -0.352,1.568 -0.32,0.704 -0.896,1.248 -0.544,0.544 -1.28,0.864 -0.736,0.32 -1.568,0.32 -0.832,0 -1.568,-0.32 -0.704,-0.32 -1.248,-0.864 -0.544,-0.544 -0.864,-1.248 -0.32,-0.736 -0.32,-1.568 0,-0.832 0.32,-1.568 0.32,-0.768 0.864,-1.312 0.544,-0.576 1.248,-0.896 0.736,-0.32 1.568,-0.32 0.832,0 1.568,0.32 0.736,0.32 1.28,0.896 0.576,0.544 0.896,1.312 0.352,0.736 0.352,1.568 z"
       style="font-variant:normal;font-stretch:normal;font-size:64px;font-family:Lato;-inkscape-font-specification:Lato;fill:#777777;fill-opacity:1"
       id="path3423" /><path
       d="m 521.68631,234.6341 q 3.552,0 6.4,1.184 2.848,1.184 4.864,3.36 2.016,2.176 3.072,5.28 1.088,3.072 1.088,6.88 0,3.84 -1.088,6.912 -1.056,3.072 -3.072,5.248 -2.016,2.176 -4.864,3.36 -2.848,1.152 -6.4,1.152 -3.584,0 -6.464,-1.152 -2.848,-1.184 -4.864,-3.36 -2.016,-2.176 -3.104,-5.248 -1.056,-3.072 -1.056,-6.912 0,-3.808 1.056,-6.88 1.088,-3.104 3.104,-5.28 2.016,-2.176 4.864,-3.36 2.88,-1.184 6.464,-1.184 z m 0,28.928 q 4.8,0 7.168,-3.2 2.368,-3.232 2.368,-8.992 0,-5.792 -2.368,-9.024 -2.368,-3.232 -7.168,-3.232 -2.432,0 -4.256,0.832 -1.792,0.832 -3.008,2.4 -1.184,1.568 -1.792,3.872 -0.576,2.272 -0.576,5.152 0,5.76 2.368,8.992 2.4,3.2 7.264,3.2 z"
       style="font-variant:normal;font-stretch:normal;font-size:64px;font-family:Lato;-inkscape-font-specification:Lato;fill:#777777;fill-opacity:1"
       id="path3425" /><path
       d="m 544.27231,267.5621 0,-32.416 3.424,0 q 1.216,0 1.504,1.184 l 0.448,3.52 q 2.112,-2.336 4.736,-3.776 2.624,-1.44 6.048,-1.44 2.656,0 4.672,0.896 2.048,0.864 3.392,2.496 1.376,1.6 2.08,3.872 0.704,2.272 0.704,5.024 l 0,20.64 -5.728,0 0,-20.64 q 0,-3.68 -1.696,-5.696 -1.664,-2.048 -5.088,-2.048 -2.56,0 -4.768,1.216 -2.176,1.216 -4,3.296 l 0,23.872 -5.728,0 z"
       style="font-variant:normal;font-stretch:normal;font-size:64px;font-family:Lato;-inkscape-font-specification:Lato;fill:#777777;fill-opacity:1"
       id="path3427" /><path
       d="m 600.63031,267.5621 q -0.832,0 -1.28,-0.256 -0.448,-0.288 -0.704,-1.088 l -0.64,-3.04 q -1.28,1.152 -2.528,2.08 -1.216,0.896 -2.56,1.536 -1.312,0.608 -2.848,0.928 -1.504,0.352 -3.36,0.352 -1.888,0 -3.552,-0.512 -1.664,-0.544 -2.912,-1.6 -1.216,-1.056 -1.952,-2.656 -0.704,-1.632 -0.704,-3.84 0,-1.92 1.056,-3.68 1.056,-1.792 3.424,-3.168 2.368,-1.376 6.176,-2.24 3.808,-0.896 9.344,-1.024 l 0,-2.528 q 0,-3.776 -1.632,-5.696 -1.632,-1.952 -4.768,-1.952 -2.112,0 -3.552,0.544 -1.408,0.512 -2.464,1.184 -1.024,0.64 -1.792,1.184 -0.736,0.512 -1.472,0.512 -0.576,0 -0.992,-0.288 -0.416,-0.32 -0.704,-0.768 l -1.024,-1.824 q 2.688,-2.592 5.792,-3.872 3.104,-1.28 6.88,-1.28 2.72,0 4.832,0.896 2.112,0.896 3.552,2.496 1.44,1.6 2.176,3.872 0.736,2.272 0.736,4.992 l 0,20.736 -2.528,0 z m -12.224,-3.488 q 1.504,0 2.752,-0.288 1.248,-0.32 2.336,-0.864 1.12,-0.576 2.112,-1.376 1.024,-0.832 1.984,-1.856 l 0,-6.72 q -3.936,0.128 -6.72,0.64 -2.752,0.48 -4.512,1.28 -1.728,0.8 -2.528,1.888 -0.768,1.088 -0.768,2.432 0,1.28 0.416,2.208 0.416,0.928 1.12,1.536 0.736,0.576 1.696,0.864 0.992,0.256 2.112,0.256 z"
       style="font-variant:normal;font-stretch:normal;font-size:64px;font-family:Lato;-inkscape-font-specification:Lato;fill:#777777;fill-opacity:1"
       id="path3429" /><path
       d="m 611.77231,267.5621 0,-32.416 3.264,0 q 0.928,0 1.28,0.352 0.352,0.352 0.48,1.216 l 0.352,4.928 q 1.536,-3.328 3.776,-5.184 2.272,-1.888 5.504,-1.888 1.024,0 1.952,0.224 0.96,0.224 1.696,0.704 l -0.416,4.256 q -0.192,0.8 -0.96,0.8 -0.448,0 -1.312,-0.192 -0.864,-0.192 -1.952,-0.192 -1.536,0 -2.752,0.48 -1.216,0.448 -2.176,1.344 -0.928,0.864 -1.664,2.144 -0.736,1.28 -1.344,2.944 l 0,20.48 -5.728,0 z"
       style="font-variant:normal;font-stretch:normal;font-size:64px;font-family:Lato;-inkscape-font-specification:Lato;fill:#777777;fill-opacity:1"
       id="path3431" /><path
       d="m 644.91031,277.1301 q -0.288,0.64 -0.736,1.024 -0.416,0.384 -1.312,0.384 l -4.224,0 5.92,-12.864 -13.376,-30.528 4.928,0 q 0.736,0 1.152,0.384 0.448,0.352 0.608,0.8 l 8.672,20.416 q 0.256,0.736 0.48,1.44 0.224,0.672 0.384,1.408 0.416,-1.44 0.96,-2.88 l 8.416,-20.384 q 0.192,-0.512 0.64,-0.832 0.48,-0.352 1.056,-0.352 l 4.512,0 -18.08,41.984 z"
       style="font-variant:normal;font-stretch:normal;font-size:64px;font-family:Lato;-inkscape-font-specification:Lato;fill:#777777;fill-opacity:1"
       id="path3433" /></g></svg>